<svg width="2000" height="1000" viewBox="0 0 2000 1000" fill="none" xmlns="http://www.w3.org/2000/svg">
<path d="M566.7 417.4V589H521.98V417.4H566.7ZM749.053 417.4V451.98H693.153V589H648.433V451.98H592.273V417.4H749.053ZM838.396 414.8C854.343 414.8 868.383 417.313 880.516 422.34C892.823 427.193 903.483 434.387 912.496 443.92L890.916 472.78C883.463 464.98 875.403 459.173 866.736 455.36C858.243 451.373 848.536 449.38 837.616 449.38C831.203 449.38 826.003 450.073 822.016 451.46C818.029 452.847 815.169 454.753 813.436 457.18C811.703 459.607 810.836 462.38 810.836 465.5C810.836 469.14 812.483 472.26 815.776 474.86C819.243 477.287 824.789 479.367 832.416 481.1L861.276 487.6C878.436 491.587 891.003 497.393 898.976 505.02C906.949 512.647 910.936 522.787 910.936 535.44C910.936 547.573 907.816 557.887 901.576 566.38C895.336 574.7 886.756 581.027 875.836 585.36C864.916 589.52 852.436 591.6 838.396 591.6C826.956 591.6 816.036 590.387 805.636 587.96C795.236 585.36 785.876 581.72 777.556 577.04C769.236 572.36 762.216 566.987 756.496 560.92L778.076 531.02C782.409 536.047 787.696 540.553 793.936 544.54C800.349 548.353 807.283 551.387 814.736 553.64C822.363 555.893 830.076 557.02 837.876 557.02C843.943 557.02 848.969 556.413 852.956 555.2C857.116 553.987 860.149 552.167 862.056 549.74C863.963 547.313 864.916 544.453 864.916 541.16C864.916 537.52 863.616 534.487 861.016 532.06C858.416 529.46 853.476 527.293 846.196 525.56L814.476 518.54C804.769 516.287 796.103 513.34 788.476 509.7C781.023 505.887 775.129 500.86 770.796 494.62C766.463 488.207 764.296 480.233 764.296 470.7C764.296 459.953 767.243 450.42 773.136 442.1C779.029 433.607 787.523 426.933 798.616 422.08C809.709 417.227 822.969 414.8 838.396 414.8ZM1015.85 414.8C1033.19 414.8 1048.09 418.353 1060.57 425.46C1073.23 432.393 1082.93 442.447 1089.69 455.62C1096.45 468.793 1099.83 484.653 1099.83 503.2C1099.83 521.747 1096.45 537.607 1089.69 550.78C1082.93 563.953 1073.23 574.093 1060.57 581.2C1048.09 588.133 1033.19 591.6 1015.85 591.6C998.521 591.6 983.527 588.133 970.874 581.2C958.221 574.093 948.514 563.953 941.754 550.78C934.994 537.607 931.614 521.747 931.614 503.2C931.614 484.653 934.994 468.793 941.754 455.62C948.514 442.447 958.221 432.393 970.874 425.46C983.527 418.353 998.521 414.8 1015.85 414.8ZM1015.85 449.9C1007.53 449.9 1000.51 451.893 994.794 455.88C989.074 459.867 984.741 465.847 981.794 473.82C978.847 481.62 977.374 491.413 977.374 503.2C977.374 514.813 978.847 524.607 981.794 532.58C984.741 540.553 989.074 546.533 994.794 550.52C1000.51 554.507 1007.53 556.5 1015.85 556.5C1024.17 556.5 1031.11 554.507 1036.65 550.52C1042.37 546.533 1046.71 540.553 1049.65 532.58C1052.6 524.607 1054.07 514.813 1054.07 503.2C1054.07 491.413 1052.6 481.62 1049.65 473.82C1046.71 465.847 1042.37 459.867 1036.65 455.88C1031.11 451.893 1024.17 449.9 1015.85 449.9ZM1207.55 414.8C1224.89 414.8 1239.79 418.353 1252.27 425.46C1264.93 432.393 1274.63 442.447 1281.39 455.62C1288.15 468.793 1291.53 484.653 1291.53 503.2C1291.53 521.747 1288.15 537.607 1281.39 550.78C1274.63 563.953 1264.93 574.093 1252.27 581.2C1239.79 588.133 1224.89 591.6 1207.55 591.6C1190.22 591.6 1175.23 588.133 1162.57 581.2C1149.92 574.093 1140.21 563.953 1133.45 550.78C1126.69 537.607 1123.31 521.747 1123.31 503.2C1123.31 484.653 1126.69 468.793 1133.45 455.62C1140.21 442.447 1149.92 432.393 1162.57 425.46C1175.23 418.353 1190.22 414.8 1207.55 414.8ZM1207.55 449.9C1199.23 449.9 1192.21 451.893 1186.49 455.88C1180.77 459.867 1176.44 465.847 1173.49 473.82C1170.55 481.62 1169.07 491.413 1169.07 503.2C1169.07 514.813 1170.55 524.607 1173.49 532.58C1176.44 540.553 1180.77 546.533 1186.49 550.52C1192.21 554.507 1199.23 556.5 1207.55 556.5C1215.87 556.5 1222.81 554.507 1228.35 550.52C1234.07 546.533 1238.41 540.553 1241.35 532.58C1244.3 524.607 1245.77 514.813 1245.77 503.2C1245.77 491.413 1244.3 481.62 1241.35 473.82C1238.41 465.847 1234.07 459.867 1228.35 455.88C1222.81 451.893 1215.87 449.9 1207.55 449.9ZM1476.99 417.4V589H1427.33L1374.03 496.18L1361.03 470.7H1360.77L1361.81 502.42V589H1322.29V417.4H1371.95L1425.25 510.22L1438.25 535.7H1438.51L1437.47 503.98V417.4H1476.99Z" fill="white"/>
</svg>
